<?xml version="1.0" encoding="iso-8859-1"?>
<!-- Generator: Adobe Illustrator 16.0.0, SVG Export Plug-In . SVG Version: 6.00 Build 0)  -->
<!DOCTYPE svg PUBLIC "-//W3C//DTD SVG 1.1//EN" "http://www.w3.org/Graphics/SVG/1.1/DTD/svg11.dtd">
<svg version="1.1" id="Capa_1" xmlns="http://www.w3.org/2000/svg" xmlns:xlink="http://www.w3.org/1999/xlink" x="0px" y="0px"
	 width="319.876px" height="319.875px" viewBox="0 0 319.876 319.875" style="enable-background:new 0 0 319.876 319.875;"
	 xml:space="preserve">
<g>
	<g>
		<path d="M177.958,200.608l130.467-51.227c6.322-2.478,11.451-8.374,11.451-13.163v-8.677V75.762
			c0-6.788-5.507-12.298-12.298-12.298c0,0-5.242,0-11.697,0c-6.462,0-11.229-0.85-10.941-1.981
			c0.174-0.676,0.265-1.384,0.265-2.102c0-5.672-5.513-10.263-12.298-10.263h-12.719c-6.791,0-12.297,4.591-12.297,10.263
			c0,0.724,0.09,1.426,0.264,2.107c0.288,1.144-3.272,2-8.263,2.023c-3.303,0.012-6.461,0.024-9.025,0.03
			c-1.976,0.006-4.017,0.012-5.999,0.012c-6.791,0.016-12.081-5.569-13.528-12.198c-6.863-31.36-40.058-29.73-40.058-29.73h-22.626
			c-30.564,0-39.193,17.315-41.454,29.694c-1.225,6.683-6.059,12.25-12.844,12.25H89c-1.783,0-3.867-0.006-6.089-0.021
			c-3.356-0.012-5.603-0.886-5.299-2.032c0.177-0.685,0.27-1.405,0.27-2.135c0-5.672-5.509-10.263-12.298-10.263H52.863
			c-6.788,0-12.298,4.591-12.298,10.263c0,0.705,0.084,1.396,0.252,2.065c0.276,1.126-4.78,1.942-11.568,1.937
			c-6.221-0.006-12.106-0.006-16.946-0.012C5.51,63.372,0,68.88,0,75.669v51.872c0,0,0,3.78,0,8.449
			c0,4.666,5.17,10.337,11.553,12.661L154.96,200.89C161.34,203.214,171.642,203.094,177.958,200.608z M129.434,51.707
			c2.669-5.191,8.02-10.115,18.732-10.115h10.698h1.084h10.697c10.713,0,16.057,4.924,18.729,10.115
			c3.099,6.038-2.9,11.886-9.686,11.886h-19.75h-1.08h-19.732C132.331,63.593,126.329,57.745,129.434,51.707z"/>
		<path d="M166.646,224.183c-1.075,0-2.144-0.187-3.165-0.559L11.56,168.285c-6.383-2.324-11.554,1.291-11.554,8.082v57.826v51.684
			c0,6.791,5.504,12.297,12.298,12.297h51.041h13.364h154.164c6.786,0,17.811,0.049,24.596,0.061
			c14.31,0.023,37.795,0.03,52.098,0.03c6.792,0.006,12.298-5.507,12.298-12.292v-51.779v-57.184c0-6.792-5.116-10.286-11.445-7.812
			l-138.422,54.344C168.927,223.972,167.786,224.183,166.646,224.183z"/>
	</g>
</g>
<g>
</g>
<g>
</g>
<g>
</g>
<g>
</g>
<g>
</g>
<g>
</g>
<g>
</g>
<g>
</g>
<g>
</g>
<g>
</g>
<g>
</g>
<g>
</g>
<g>
</g>
<g>
</g>
<g>
</g>
</svg>
