<?xml version="1.0" encoding="utf-8"?>
<!-- Generator: Adobe Illustrator 16.0.0, SVG Export Plug-In . SVG Version: 6.00 Build 0)  -->
<!DOCTYPE svg PUBLIC "-//W3C//DTD SVG 1.1//EN" "http://www.w3.org/Graphics/SVG/1.1/DTD/svg11.dtd">
<svg version="1.1" id="Layer_1" xmlns="http://www.w3.org/2000/svg" xmlns:xlink="http://www.w3.org/1999/xlink" x="0px" y="0px"
	 width="960px" height="560px" viewBox="0 0 960 560" enable-background="new 0 0 960 560" xml:space="preserve">
<g>
	<path d="M209.84,203.971c12.32,0,17.472,6.271,17.472,17.92v6.384c0,8.624-3.024,14-9.744,16.128
		c7.168,2.128,9.856,7.952,9.856,16.352v12.208c0,3.473,0.112,6.721,1.568,9.408h-8.848c-1.008-2.24-1.456-4.256-1.456-9.52v-12.32
		c0-8.848-4.144-11.648-11.424-11.648h-6.16v33.488h-8.736v-78.399H209.84z M207.6,240.931c6.944,0,11.088-2.24,11.088-10.752
		v-7.504c0-7.057-2.576-10.752-9.072-10.752h-8.512v29.008H207.6z"/>
	<path d="M241.872,247.09v35.28h-8.736v-78.399h8.736v35.279h19.264v-35.279h8.736v78.399h-8.736v-35.28H241.872z"/>
	<path d="M283.759,263.891c0,7.056,2.8,11.312,9.184,11.312c6.271,0,9.072-4.256,9.072-11.312v-59.92h8.176v59.472
		c0,11.872-5.488,19.824-17.584,19.824c-11.984,0-17.472-7.952-17.472-19.824v-59.472h8.624V263.891z"/>
	<path d="M336.286,282.37h-11.984l-10.752-78.399h8.512l9.184,66.751l8.736-66.64h8.624l8.624,66.752l8.848-66.863h7.616
		l-10.64,78.399h-11.536l-7.504-53.2L336.286,282.37z"/>
	<path d="M405.277,238.69v7.84h-19.152v27.888h23.52v7.952h-32.256v-78.399h32.256v7.952h-23.52v26.768H405.277z"/>
	<path d="M414.347,282.37v-78.399h8.736v70.447h22.4v7.952H414.347z"/>
	<path d="M448.73,282.37v-78.399h8.736v70.447h22.4v7.952H448.73z"/>
	<path d="M499.689,203.074c11.984,0,18.145,7.168,18.145,19.712v2.464h-11.648v-3.248c0-5.6-2.24-7.728-6.16-7.728
		s-6.158,2.128-6.158,7.728c0,16.128,24.078,19.152,24.078,41.552c0,12.545-6.271,19.713-18.367,19.713s-18.367-7.168-18.367-19.713
		v-4.815h11.646v5.6c0,5.601,2.465,7.616,6.385,7.616s6.385-2.016,6.385-7.616c0-16.128-24.08-19.151-24.08-41.552
		C481.547,210.242,487.707,203.074,499.689,203.074z"/>
	<path d="M561.512,282.37H549.08l-2.127-14.224h-15.121l-2.127,14.224h-11.312l12.545-78.399h18.031L561.512,282.37z M533.4,257.506
		h11.873l-5.938-39.647L533.4,257.506z"/>
	<path d="M589.961,259.634l8.4-55.663h17.135v78.399H603.85v-56.224l-8.512,56.224h-11.648l-9.184-55.439v55.439h-10.752v-78.399
		h17.135L589.961,259.634z"/>
	<path d="M660.967,282.37h-12.432l-2.129-14.224h-15.119l-2.129,14.224h-11.311l12.543-78.399h18.031L660.967,282.37z
		 M632.855,257.506h11.871l-5.936-39.647L632.855,257.506z"/>
	<path d="M674.295,225.586v56.784h-11.088v-78.399h15.455l12.656,46.928v-46.928h10.977v78.399h-12.656L674.295,225.586z"/>
	<path d="M706.773,222.786c0-12.544,6.607-19.712,18.703-19.712s18.705,7.168,18.705,19.712v40.768
		c0,12.545-6.609,19.713-18.705,19.713s-18.703-7.168-18.703-19.713V222.786z M719.094,264.338c0,5.601,2.463,7.729,6.383,7.729
		s6.385-2.128,6.385-7.729v-42.336c0-5.6-2.465-7.728-6.385-7.728s-6.383,2.128-6.383,7.728V264.338z"/>
</g>
<rect id="_x3C_Slice_x3E_" x="181" y="190" fill="none" width="572" height="103"/>
</svg>
