<?xml version="1.0" encoding="utf-8"?>
<!-- Generator: Adobe Illustrator 16.0.0, SVG Export Plug-In . SVG Version: 6.00 Build 0)  -->
<!DOCTYPE svg PUBLIC "-//W3C//DTD SVG 1.1//EN" "http://www.w3.org/Graphics/SVG/1.1/DTD/svg11.dtd">
<svg version="1.1" xmlns="http://www.w3.org/2000/svg" xmlns:xlink="http://www.w3.org/1999/xlink" x="0px" y="0px"
	 width="732.787px" height="122.131px" viewBox="0 0 732.787 122.131" enable-background="new 0 0 732.787 122.131"
	 xml:space="preserve">
<g id="text">
	<g>
		<path fill="#FFFFFF" d="M108.988,21.905c12.32,0,17.472,6.271,17.472,17.92v6.384c0,8.624-3.024,14-9.744,16.128
			c7.168,2.128,9.856,7.952,9.856,16.352v12.208c0,3.473,0.112,6.721,1.568,9.408h-8.848c-1.008-2.24-1.456-4.256-1.456-9.52v-12.32
			c0-8.848-4.144-11.648-11.424-11.648h-6.16v33.488h-8.736V21.905H108.988z M106.748,58.865c6.944,0,11.088-2.24,11.088-10.752
			v-7.504c0-7.057-2.576-10.752-9.072-10.752h-8.512v29.008H106.748z"/>
		<path fill="#FFFFFF" d="M141.02,65.024v35.28h-8.736V21.905h8.736v35.279h19.264V21.905h8.736v78.399h-8.736v-35.28H141.02z"/>
		<path fill="#FFFFFF" d="M182.906,81.825c0,7.056,2.8,11.312,9.184,11.312c6.271,0,9.072-4.256,9.072-11.312v-59.92h8.176v59.472
			c0,11.872-5.488,19.824-17.584,19.824c-11.984,0-17.472-7.952-17.472-19.824V21.905h8.624V81.825z"/>
		<path fill="#FFFFFF" d="M235.434,100.305H223.45l-10.752-78.399h8.512l9.184,66.751l8.736-66.64h8.624l8.624,66.752l8.848-66.863
			h7.616l-10.64,78.399h-11.536l-7.504-53.2L235.434,100.305z"/>
		<path fill="#FFFFFF" d="M304.424,56.625v7.84h-19.152v27.888h23.52v7.952h-32.256V21.905h32.256v7.952h-23.52v26.768H304.424z"/>
		<path fill="#FFFFFF" d="M313.495,100.305V21.905h8.736v70.447h22.4v7.952H313.495z"/>
		<path fill="#FFFFFF" d="M347.877,100.305V21.905h8.736v70.447h22.401v7.952H347.877z"/>
		<path fill="#FFFFFF" d="M398.837,21.009c11.984,0,18.145,7.168,18.145,19.712v2.464h-11.648v-3.248c0-5.6-2.24-7.728-6.16-7.728
			s-6.158,2.128-6.158,7.728c0,16.128,24.078,19.152,24.078,41.552c0,12.545-6.271,19.713-18.367,19.713
			s-18.367-7.168-18.367-19.713v-4.815h11.646v5.6c0,5.601,2.465,7.616,6.385,7.616s6.385-2.016,6.385-7.616
			c0-16.128-24.08-19.151-24.08-41.552C380.694,28.177,386.854,21.009,398.837,21.009z"/>
		<path fill="#FFFFFF" d="M460.659,100.305h-12.432l-2.127-14.224h-15.121l-2.127,14.224H417.54l12.545-78.399h18.031
			L460.659,100.305z M432.548,75.44h11.873l-5.938-39.647L432.548,75.44z"/>
		<path fill="#FFFFFF" d="M489.108,77.568l8.4-55.663h17.135v78.399h-11.646V44.081l-8.512,56.224h-11.648l-9.184-55.439v55.439
			h-10.752V21.905h17.135L489.108,77.568z"/>
		<path fill="#FFFFFF" d="M560.114,100.305h-12.432l-2.129-14.224h-15.119l-2.129,14.224h-11.311l12.543-78.399h18.031
			L560.114,100.305z M532.003,75.44h11.871l-5.936-39.647L532.003,75.44z"/>
		<path fill="#FFFFFF" d="M573.442,43.521v56.784h-11.088V21.905h15.455l12.656,46.928V21.905h10.977v78.399h-12.656L573.442,43.521
			z"/>
		<path fill="#FFFFFF" d="M605.921,40.721c0-12.544,6.607-19.712,18.703-19.712s18.705,7.168,18.705,19.712v40.768
			c0,12.545-6.609,19.713-18.705,19.713s-18.703-7.168-18.703-19.713V40.721z M618.241,82.272c0,5.601,2.463,7.729,6.383,7.729
			s6.385-2.128,6.385-7.729V39.937c0-5.6-2.465-7.728-6.385-7.728s-6.383,2.128-6.383,7.728V82.272z"/>
	</g>
</g>
<g id="code_brackets" display="none">
	<rect x="21.823" y="16.393" display="inline" fill="none" width="304.918" height="105.738"/>
	<text transform="matrix(1 0 0 1 21.8232 99.3916)" display="inline" fill="#FFFFFF" font-family="'Futura-Bold'" font-size="100">&lt;</text>
	<rect x="597.13" y="10.657" display="inline" fill="none" width="241.804" height="104.1"/>
	<text transform="matrix(1 0 0 1 597.1299 93.6553)" display="inline" fill="#FFFFFF" font-family="'Futura-Bold'" font-size="100">/&gt;</text>
</g>
</svg>
